<?xml version="1.0" encoding="utf-8"?>
<!-- Generator: Adobe Illustrator 27.7.0, SVG Export Plug-In . SVG Version: 6.00 Build 0)  -->
<svg version="1.1" id="Layer_1" xmlns="http://www.w3.org/2000/svg" xmlns:xlink="http://www.w3.org/1999/xlink" x="0px" y="0px"
	 viewBox="0 0 500 500" style="enable-background:new 0 0 500 500;" xml:space="preserve">
<style type="text/css">
	.st0{fill:#7E5342;stroke:#000000;stroke-miterlimit:10;}
	.st1{fill:#FFFFFF;}
</style>
<rect class="st0" width="500" height="500"/>
<polygon class="st1" points="75.6,245.6 45.3,204.5 29.4,204.5 29.4,295.5 46,295.5 46,232.5 74.3,271.1 76.2,271.1 104.3,233.6 
	104.3,295.5 121.1,295.5 121.1,204.5 105.2,204.5 "/>
<polygon class="st1" points="155.5,295.5 172.1,295.5 172.1,259 210.7,259 210.7,244.3 172.1,244.3 172.1,219.1 216.2,219.1 
	216.2,204.5 155.5,204.5 "/>
<polygon class="st1" points="337.9,272.9 320.3,204.5 303.1,204.5 285.4,272.9 268.5,204.5 250.6,204.5 275.1,295.5 294.2,295.5 
	311.6,230.1 329.1,295.5 348.2,295.5 372.6,204.5 354.8,204.5 "/>
<path class="st1" d="M463,248.8c3.4-4.6,5.1-10.1,5.1-16.5c0-5.5-1.3-10.4-3.8-14.5c-2.4-4.2-5.9-7.5-10.4-9.8
	c-4.5-2.4-9.7-3.5-15.6-3.5H407v91.1h9.8v-35.4H439l20.1,35.4h11.5l-21.3-37C455.1,256.6,459.7,253.4,463,248.8z M438.8,250.9h-22
	v-37.3h22c3.9,0,7.3,0.8,10.3,2.3c2.9,1.5,5.2,3.6,6.8,6.4c1.6,2.8,2.4,6.1,2.4,9.9s-0.8,7.2-2.4,10c-1.6,2.8-3.9,4.9-6.8,6.5
	C446.2,250.2,442.7,250.9,438.8,250.9z"/>
</svg>
