<svg width="278" height="19" viewBox="0 0 278 19" fill="none" xmlns="http://www.w3.org/2000/svg">
<path d="M0.728 18.5V0.619998H3.848L10.544 9.716H9.056L15.608 0.619998H18.728V18.5H15.44V4.34L16.712 4.652L9.92 13.7H9.536L2.912 4.652L3.992 4.34V18.5H0.728ZM28.0779 18.788C26.7339 18.788 25.5579 18.484 24.5499 17.876C23.5419 17.268 22.7579 16.444 22.1979 15.404C21.6379 14.364 21.3579 13.212 21.3579 11.948C21.3579 10.636 21.6379 9.476 22.1979 8.468C22.7739 7.444 23.5499 6.636 24.5259 6.044C25.5179 5.452 26.6219 5.156 27.8379 5.156C28.8619 5.156 29.7579 5.324 30.5259 5.66C31.3099 5.996 31.9739 6.46 32.5179 7.052C33.0619 7.644 33.4779 8.324 33.7659 9.092C34.0539 9.844 34.1979 10.66 34.1979 11.54C34.1979 11.764 34.1819 11.996 34.1499 12.236C34.1339 12.476 34.0939 12.684 34.0299 12.86H23.9499V10.46H32.2539L30.7659 11.588C30.9099 10.852 30.8699 10.196 30.6459 9.62C30.4379 9.044 30.0859 8.588 29.5899 8.252C29.1099 7.916 28.5259 7.748 27.8379 7.748C27.1819 7.748 26.5979 7.916 26.0859 8.252C25.5739 8.572 25.1819 9.052 24.9099 9.692C24.6539 10.316 24.5579 11.076 24.6219 11.972C24.5579 12.772 24.6619 13.484 24.9339 14.108C25.2219 14.716 25.6379 15.188 26.1819 15.524C26.7419 15.86 27.3819 16.028 28.1019 16.028C28.8219 16.028 29.4299 15.876 29.9259 15.572C30.4379 15.268 30.8379 14.86 31.1259 14.348L33.6699 15.596C33.4139 16.22 33.0139 16.772 32.4699 17.252C31.9259 17.732 31.2779 18.108 30.5259 18.38C29.7899 18.652 28.9739 18.788 28.0779 18.788ZM36.5812 18.5V5.444H39.5332V8.012L39.2932 7.556C39.5972 6.772 40.0932 6.18 40.7812 5.78C41.4852 5.364 42.3012 5.156 43.2292 5.156C44.1892 5.156 45.0372 5.364 45.7732 5.78C46.5252 6.196 47.1092 6.78 47.5252 7.532C47.9412 8.268 48.1492 9.124 48.1492 10.1V18.5H45.0052V10.844C45.0052 10.268 44.8932 9.772 44.6692 9.356C44.4452 8.94 44.1332 8.62 43.7332 8.396C43.3492 8.156 42.8932 8.036 42.3652 8.036C41.8532 8.036 41.3972 8.156 40.9972 8.396C40.5972 8.62 40.2852 8.94 40.0612 9.356C39.8372 9.772 39.7252 10.268 39.7252 10.844V18.5H36.5812ZM55.7758 18.788C54.3838 18.788 53.1678 18.46 52.1278 17.804C51.1038 17.132 50.3998 16.228 50.0158 15.092L52.3678 13.964C52.7038 14.7 53.1678 15.276 53.7598 15.692C54.3678 16.108 55.0398 16.316 55.7758 16.316C56.3518 16.316 56.8078 16.188 57.1438 15.932C57.4798 15.676 57.6478 15.34 57.6478 14.924C57.6478 14.668 57.5758 14.46 57.4318 14.3C57.3038 14.124 57.1198 13.98 56.8798 13.868C56.6558 13.74 56.4078 13.636 56.1358 13.556L53.9998 12.956C52.8958 12.636 52.0558 12.148 51.4798 11.492C50.9198 10.836 50.6398 10.06 50.6398 9.164C50.6398 8.364 50.8398 7.668 51.2398 7.076C51.6558 6.468 52.2238 5.996 52.9438 5.66C53.6798 5.324 54.5198 5.156 55.4638 5.156C56.6958 5.156 57.7838 5.452 58.7278 6.044C59.6718 6.636 60.3438 7.468 60.7438 8.54L58.3438 9.668C58.1198 9.076 57.7438 8.604 57.2158 8.252C56.6878 7.9 56.0958 7.724 55.4398 7.724C54.9118 7.724 54.4958 7.844 54.1918 8.084C53.8878 8.324 53.7358 8.636 53.7358 9.02C53.7358 9.26 53.7998 9.468 53.9278 9.644C54.0558 9.82 54.2318 9.964 54.4558 10.076C54.6958 10.188 54.9678 10.292 55.2718 10.388L57.3598 11.012C58.4318 11.332 59.2558 11.812 59.8318 12.452C60.4238 13.092 60.7198 13.876 60.7198 14.804C60.7198 15.588 60.5118 16.284 60.0958 16.892C59.6798 17.484 59.1038 17.948 58.3678 18.284C57.6318 18.62 56.7678 18.788 55.7758 18.788ZM63.3999 18.5V0.619998H75.3279V3.5H66.6639V8.444H74.2479V11.324H66.6639V18.5H63.3999ZM83.3011 18.788C82.0211 18.788 80.8531 18.492 79.7971 17.9C78.7571 17.308 77.9251 16.5 77.3011 15.476C76.6931 14.452 76.3891 13.284 76.3891 11.972C76.3891 10.66 76.6931 9.492 77.3011 8.468C77.9251 7.444 78.7571 6.636 79.7971 6.044C80.8371 5.452 82.0051 5.156 83.3011 5.156C84.5811 5.156 85.7411 5.452 86.7811 6.044C87.8211 6.636 88.6451 7.444 89.2531 8.468C89.8771 9.476 90.1891 10.644 90.1891 11.972C90.1891 13.284 89.8771 14.452 89.2531 15.476C88.6291 16.5 87.7971 17.308 86.7571 17.9C85.7171 18.492 84.5651 18.788 83.3011 18.788ZM83.3011 15.908C84.0051 15.908 84.6211 15.74 85.1491 15.404C85.6931 15.068 86.1171 14.604 86.4211 14.012C86.7411 13.404 86.9011 12.724 86.9011 11.972C86.9011 11.204 86.7411 10.532 86.4211 9.956C86.1171 9.364 85.6931 8.9 85.1491 8.564C84.6211 8.212 84.0051 8.036 83.3011 8.036C82.5811 8.036 81.9491 8.212 81.4051 8.564C80.8611 8.9 80.4291 9.364 80.1091 9.956C79.8051 10.532 79.6531 11.204 79.6531 11.972C79.6531 12.724 79.8051 13.404 80.1091 14.012C80.4291 14.604 80.8611 15.068 81.4051 15.404C81.9491 15.74 82.5811 15.908 83.3011 15.908ZM92.5734 18.5V5.444H95.5254V8.348L95.2854 7.916C95.5894 6.94 96.0614 6.26 96.7014 5.876C97.3574 5.492 98.1414 5.3 99.0534 5.3H99.8214V8.084H98.6934C97.7974 8.084 97.0774 8.364 96.5334 8.924C95.9894 9.468 95.7174 10.236 95.7174 11.228V18.5H92.5734ZM101.55 18.5V5.444H104.502V8.468L104.166 7.964C104.406 7.02 104.886 6.316 105.606 5.852C106.326 5.388 107.174 5.156 108.15 5.156C109.222 5.156 110.166 5.436 110.982 5.996C111.798 6.556 112.326 7.292 112.566 8.204L111.678 8.276C112.078 7.236 112.678 6.46 113.478 5.948C114.278 5.42 115.198 5.156 116.238 5.156C117.166 5.156 117.99 5.364 118.71 5.78C119.446 6.196 120.022 6.78 120.438 7.532C120.854 8.268 121.062 9.124 121.062 10.1V18.5H117.918V10.844C117.918 10.268 117.814 9.772 117.606 9.356C117.398 8.94 117.11 8.62 116.742 8.396C116.374 8.156 115.926 8.036 115.398 8.036C114.902 8.036 114.462 8.156 114.078 8.396C113.694 8.62 113.398 8.94 113.19 9.356C112.982 9.772 112.878 10.268 112.878 10.844V18.5H109.734V10.844C109.734 10.268 109.63 9.772 109.422 9.356C109.214 8.94 108.918 8.62 108.534 8.396C108.166 8.156 107.726 8.036 107.214 8.036C106.718 8.036 106.278 8.156 105.894 8.396C105.51 8.62 105.214 8.94 105.006 9.356C104.798 9.772 104.694 10.268 104.694 10.844V18.5H101.55ZM127.682 18.788C126.77 18.788 125.978 18.636 125.306 18.332C124.634 18.028 124.114 17.596 123.746 17.036C123.378 16.46 123.194 15.796 123.194 15.044C123.194 14.324 123.354 13.684 123.674 13.124C123.994 12.548 124.49 12.068 125.162 11.684C125.834 11.3 126.682 11.028 127.706 10.868L131.978 10.172V12.572L128.306 13.196C127.682 13.308 127.218 13.508 126.914 13.796C126.61 14.084 126.458 14.46 126.458 14.924C126.458 15.372 126.626 15.732 126.962 16.004C127.314 16.26 127.746 16.388 128.258 16.388C128.914 16.388 129.49 16.252 129.986 15.98C130.498 15.692 130.89 15.3 131.162 14.804C131.45 14.308 131.594 13.764 131.594 13.172V9.812C131.594 9.252 131.37 8.788 130.922 8.42C130.49 8.036 129.914 7.844 129.194 7.844C128.522 7.844 127.922 8.028 127.394 8.396C126.882 8.748 126.506 9.22 126.266 9.812L123.698 8.564C123.954 7.876 124.354 7.284 124.898 6.788C125.458 6.276 126.114 5.876 126.866 5.588C127.618 5.3 128.434 5.156 129.314 5.156C130.386 5.156 131.33 5.356 132.146 5.756C132.962 6.14 133.594 6.684 134.042 7.388C134.506 8.076 134.738 8.884 134.738 9.812V18.5H131.762V16.268L132.434 16.22C132.098 16.78 131.698 17.252 131.234 17.636C130.77 18.004 130.242 18.292 129.65 18.5C129.058 18.692 128.402 18.788 127.682 18.788ZM137.644 18.5V0.331999H140.788V18.5H137.644ZM147.291 18.5L142.491 0.619998H145.995L149.763 15.86H148.851L152.787 0.619998H156.171L160.083 15.86H159.171L162.939 0.619998H166.443L161.643 18.5H157.899L153.939 3.668H154.995L151.035 18.5H147.291ZM173.578 18.788C172.234 18.788 171.058 18.484 170.05 17.876C169.042 17.268 168.258 16.444 167.698 15.404C167.138 14.364 166.858 13.212 166.858 11.948C166.858 10.636 167.138 9.476 167.698 8.468C168.274 7.444 169.05 6.636 170.026 6.044C171.018 5.452 172.122 5.156 173.338 5.156C174.362 5.156 175.258 5.324 176.026 5.66C176.81 5.996 177.474 6.46 178.018 7.052C178.562 7.644 178.978 8.324 179.266 9.092C179.554 9.844 179.698 10.66 179.698 11.54C179.698 11.764 179.682 11.996 179.65 12.236C179.634 12.476 179.594 12.684 179.53 12.86H169.45V10.46H177.754L176.266 11.588C176.41 10.852 176.37 10.196 176.146 9.62C175.938 9.044 175.586 8.588 175.09 8.252C174.61 7.916 174.026 7.748 173.338 7.748C172.682 7.748 172.098 7.916 171.586 8.252C171.074 8.572 170.682 9.052 170.41 9.692C170.154 10.316 170.058 11.076 170.122 11.972C170.058 12.772 170.162 13.484 170.434 14.108C170.722 14.716 171.138 15.188 171.682 15.524C172.242 15.86 172.882 16.028 173.602 16.028C174.322 16.028 174.93 15.876 175.426 15.572C175.938 15.268 176.338 14.86 176.626 14.348L179.17 15.596C178.914 16.22 178.514 16.772 177.97 17.252C177.426 17.732 176.778 18.108 176.026 18.38C175.29 18.652 174.474 18.788 173.578 18.788ZM185.994 18.788C185.082 18.788 184.29 18.636 183.618 18.332C182.946 18.028 182.426 17.596 182.058 17.036C181.69 16.46 181.506 15.796 181.506 15.044C181.506 14.324 181.666 13.684 181.986 13.124C182.306 12.548 182.802 12.068 183.474 11.684C184.146 11.3 184.994 11.028 186.018 10.868L190.29 10.172V12.572L186.618 13.196C185.994 13.308 185.53 13.508 185.226 13.796C184.922 14.084 184.77 14.46 184.77 14.924C184.77 15.372 184.938 15.732 185.274 16.004C185.626 16.26 186.058 16.388 186.57 16.388C187.226 16.388 187.802 16.252 188.298 15.98C188.81 15.692 189.202 15.3 189.474 14.804C189.762 14.308 189.906 13.764 189.906 13.172V9.812C189.906 9.252 189.682 8.788 189.234 8.42C188.802 8.036 188.226 7.844 187.506 7.844C186.834 7.844 186.234 8.028 185.706 8.396C185.194 8.748 184.818 9.22 184.578 9.812L182.01 8.564C182.266 7.876 182.666 7.284 183.21 6.788C183.77 6.276 184.426 5.876 185.178 5.588C185.93 5.3 186.746 5.156 187.626 5.156C188.698 5.156 189.642 5.356 190.458 5.756C191.274 6.14 191.906 6.684 192.354 7.388C192.818 8.076 193.05 8.884 193.05 9.812V18.5H190.074V16.268L190.746 16.22C190.41 16.78 190.01 17.252 189.546 17.636C189.082 18.004 188.554 18.292 187.962 18.5C187.37 18.692 186.714 18.788 185.994 18.788ZM195.956 18.5V5.444H198.908V8.348L198.668 7.916C198.972 6.94 199.444 6.26 200.084 5.876C200.74 5.492 201.524 5.3 202.436 5.3H203.204V8.084H202.076C201.18 8.084 200.46 8.364 199.916 8.924C199.372 9.468 199.1 10.236 199.1 11.228V18.5H195.956ZM209.846 18.5V0.619998H215.99C217.158 0.619998 218.182 0.851999 219.062 1.316C219.942 1.764 220.622 2.404 221.102 3.236C221.598 4.052 221.846 5.004 221.846 6.092C221.846 7.356 221.51 8.436 220.838 9.332C220.182 10.228 219.286 10.86 218.15 11.228L222.326 18.5H220.07L215.702 10.796L216.998 11.54H211.766V18.5H209.846ZM211.766 9.74H216.086C216.854 9.74 217.526 9.596 218.102 9.308C218.678 9.004 219.126 8.58 219.446 8.036C219.766 7.476 219.926 6.82 219.926 6.068C219.926 5.316 219.766 4.668 219.446 4.124C219.126 3.58 218.678 3.164 218.102 2.876C217.526 2.572 216.854 2.42 216.086 2.42H211.766V9.74ZM230.087 18.788C228.887 18.788 227.799 18.5 226.823 17.924C225.863 17.332 225.103 16.524 224.543 15.5C223.983 14.476 223.703 13.316 223.703 12.02C223.703 10.724 223.975 9.58 224.519 8.588C225.063 7.58 225.799 6.788 226.727 6.212C227.671 5.636 228.727 5.348 229.895 5.348C230.823 5.348 231.647 5.524 232.367 5.876C233.103 6.212 233.727 6.676 234.239 7.268C234.751 7.844 235.143 8.5 235.415 9.236C235.687 9.956 235.823 10.7 235.823 11.468C235.823 11.628 235.815 11.812 235.799 12.02C235.783 12.212 235.759 12.412 235.727 12.62H224.855V10.94H234.695L233.831 11.66C233.975 10.78 233.871 9.996 233.519 9.308C233.183 8.604 232.695 8.052 232.055 7.652C231.415 7.236 230.695 7.028 229.895 7.028C229.095 7.028 228.351 7.236 227.663 7.652C226.991 8.068 226.463 8.652 226.079 9.404C225.695 10.14 225.543 11.02 225.623 12.044C225.543 13.068 225.703 13.964 226.103 14.732C226.519 15.484 227.079 16.068 227.783 16.484C228.503 16.9 229.271 17.108 230.087 17.108C231.031 17.108 231.823 16.884 232.463 16.436C233.103 15.988 233.623 15.428 234.023 14.756L235.559 15.572C235.303 16.148 234.911 16.684 234.383 17.18C233.855 17.66 233.223 18.052 232.487 18.356C231.767 18.644 230.967 18.788 230.087 18.788ZM238.996 18.5V5.636H240.796V8.132L240.388 8.036C240.708 7.204 241.228 6.548 241.948 6.068C242.684 5.588 243.532 5.348 244.492 5.348C245.404 5.348 246.22 5.556 246.94 5.972C247.676 6.388 248.252 6.964 248.668 7.7C249.1 8.42 249.316 9.236 249.316 10.148V18.5H247.516V10.844C247.516 10.06 247.372 9.396 247.084 8.852C246.812 8.308 246.42 7.892 245.908 7.604C245.412 7.3 244.836 7.148 244.18 7.148C243.524 7.148 242.94 7.3 242.428 7.604C241.916 7.892 241.516 8.316 241.228 8.876C240.94 9.42 240.796 10.076 240.796 10.844V18.5H238.996ZM257.674 18.644C256.522 18.644 255.634 18.308 255.01 17.636C254.386 16.964 254.074 16.004 254.074 14.756V7.436H251.698V5.636H252.298C252.842 5.636 253.274 5.46 253.594 5.108C253.914 4.74 254.074 4.284 254.074 3.74V2.66H255.874V5.636H258.706V7.436H255.874V14.756C255.874 15.188 255.938 15.572 256.066 15.908C256.194 16.228 256.41 16.484 256.714 16.676C257.034 16.868 257.458 16.964 257.986 16.964C258.114 16.964 258.266 16.956 258.442 16.94C258.618 16.924 258.77 16.908 258.898 16.892V18.5C258.706 18.548 258.49 18.58 258.25 18.596C258.01 18.628 257.818 18.644 257.674 18.644ZM265.545 18.788C264.729 18.788 264.001 18.636 263.361 18.332C262.721 18.012 262.217 17.58 261.849 17.036C261.481 16.492 261.297 15.868 261.297 15.164C261.297 14.492 261.441 13.884 261.729 13.34C262.017 12.78 262.465 12.308 263.073 11.924C263.681 11.54 264.457 11.268 265.401 11.108L270.441 10.268V11.9L265.833 12.668C264.905 12.828 264.233 13.124 263.817 13.556C263.417 13.988 263.217 14.5 263.217 15.092C263.217 15.668 263.441 16.156 263.889 16.556C264.353 16.956 264.945 17.156 265.665 17.156C266.545 17.156 267.313 16.972 267.969 16.604C268.625 16.22 269.137 15.708 269.505 15.068C269.873 14.428 270.057 13.716 270.057 12.932V9.668C270.057 8.9 269.777 8.276 269.217 7.796C268.657 7.316 267.929 7.076 267.033 7.076C266.249 7.076 265.561 7.276 264.969 7.676C264.377 8.06 263.937 8.564 263.649 9.188L262.017 8.3C262.257 7.756 262.633 7.26 263.145 6.812C263.673 6.364 264.273 6.012 264.945 5.756C265.617 5.484 266.313 5.348 267.033 5.348C267.977 5.348 268.809 5.532 269.529 5.9C270.265 6.268 270.833 6.78 271.233 7.436C271.649 8.076 271.857 8.82 271.857 9.668V18.5H270.057V15.932L270.321 16.196C270.097 16.676 269.745 17.116 269.265 17.516C268.801 17.9 268.249 18.212 267.609 18.452C266.985 18.676 266.297 18.788 265.545 18.788ZM275.559 18.5V0.331999H277.359V18.5H275.559Z" fill="#000000"/>
</svg>
