<svg width="142" height="26" viewBox="0 0 142 26" fill="none" xmlns="http://www.w3.org/2000/svg">
<path d="M13.5077 20.2404L19.3226 23.9325C20.0725 24.4055 20.9956 23.7017 20.7763 22.8364L19.0919 16.2138C19.0463 16.0302 19.0535 15.8375 19.1127 15.6579C19.1719 15.4783 19.2807 15.319 19.4264 15.1985L24.6414 10.8488C25.3222 10.2835 24.976 9.14125 24.0876 9.08356L17.2804 8.64513C17.0947 8.63432 16.9161 8.56965 16.7666 8.459C16.617 8.34836 16.5029 8.19654 16.4382 8.0221L13.8999 1.63027C13.8327 1.44556 13.7103 1.28599 13.5493 1.17324C13.3883 1.06048 13.1966 1 13 1C12.8034 1 12.6117 1.06048 12.4507 1.17324C12.2897 1.28599 12.1673 1.44556 12.1001 1.63027L9.56179 8.0221C9.4971 8.19654 9.383 8.34836 9.23343 8.459C9.08385 8.56965 8.90529 8.63432 8.71955 8.64513L1.91237 9.08356C1.02397 9.14125 0.677844 10.2835 1.35856 10.8488L6.57356 15.1985C6.71932 15.319 6.82806 15.4783 6.88726 15.6579C6.94645 15.8375 6.9537 16.0302 6.90815 16.2138L5.35057 22.3518C5.08521 23.3902 6.19282 24.2324 7.08121 23.6671L12.4923 20.2404C12.6441 20.1439 12.8202 20.0927 13 20.0927C13.1798 20.0927 13.3559 20.1439 13.5077 20.2404Z" fill="#F8D57E" stroke="#F8D57E" stroke-width="2" stroke-linecap="round" stroke-linejoin="round"/>
<path d="M42.5077 20.2404L48.3226 23.9325C49.0725 24.4055 49.9956 23.7017 49.7763 22.8364L48.0919 16.2138C48.0463 16.0302 48.0535 15.8375 48.1127 15.6579C48.1719 15.4783 48.2807 15.319 48.4264 15.1985L53.6414 10.8488C54.3222 10.2835 53.976 9.14125 53.0876 9.08356L46.2804 8.64513C46.0947 8.63432 45.9161 8.56965 45.7666 8.459C45.617 8.34836 45.5029 8.19654 45.4382 8.0221L42.8999 1.63027C42.8327 1.44556 42.7103 1.28599 42.5493 1.17324C42.3883 1.06048 42.1966 1 42 1C41.8034 1 41.6117 1.06048 41.4507 1.17324C41.2897 1.28599 41.1673 1.44556 41.1001 1.63027L38.5618 8.0221C38.4971 8.19654 38.383 8.34836 38.2334 8.459C38.0839 8.56965 37.9053 8.63432 37.7196 8.64513L30.9124 9.08356C30.024 9.14125 29.6778 10.2835 30.3586 10.8488L35.5736 15.1985C35.7193 15.319 35.8281 15.4783 35.8873 15.6579C35.9465 15.8375 35.9537 16.0302 35.9081 16.2138L34.3506 22.3518C34.0852 23.3902 35.1928 24.2324 36.0812 23.6671L41.4923 20.2404C41.6441 20.1439 41.8202 20.0927 42 20.0927C42.1798 20.0927 42.3559 20.1439 42.5077 20.2404Z" fill="#F8D57E" stroke="#F8D57E" stroke-width="2" stroke-linecap="round" stroke-linejoin="round"/>
<path d="M71.5077 20.2404L77.3226 23.9325C78.0725 24.4055 78.9956 23.7017 78.7763 22.8364L77.0919 16.2138C77.0463 16.0302 77.0535 15.8375 77.1127 15.6579C77.1719 15.4783 77.2807 15.319 77.4264 15.1985L82.6414 10.8488C83.3222 10.2835 82.976 9.14125 82.0876 9.08356L75.2804 8.64513C75.0947 8.63432 74.9161 8.56965 74.7666 8.459C74.617 8.34836 74.5029 8.19654 74.4382 8.0221L71.8999 1.63027C71.8327 1.44556 71.7103 1.28599 71.5493 1.17324C71.3883 1.06048 71.1966 1 71 1C70.8034 1 70.6117 1.06048 70.4507 1.17324C70.2897 1.28599 70.1673 1.44556 70.1001 1.63027L67.5618 8.0221C67.4971 8.19654 67.383 8.34836 67.2334 8.459C67.0839 8.56965 66.9053 8.63432 66.7196 8.64513L59.9124 9.08356C59.024 9.14125 58.6778 10.2835 59.3586 10.8488L64.5736 15.1985C64.7193 15.319 64.8281 15.4783 64.8873 15.6579C64.9465 15.8375 64.9537 16.0302 64.9081 16.2138L63.3506 22.3518C63.0852 23.3902 64.1928 24.2324 65.0812 23.6671L70.4923 20.2404C70.6441 20.1439 70.8202 20.0927 71 20.0927C71.1798 20.0927 71.3559 20.1439 71.5077 20.2404Z" fill="#F8D57E" stroke="#F8D57E" stroke-width="2" stroke-linecap="round" stroke-linejoin="round"/>
<path d="M100.508 20.2404L106.323 23.9325C107.073 24.4055 107.996 23.7017 107.776 22.8364L106.092 16.2138C106.046 16.0302 106.054 15.8375 106.113 15.6579C106.172 15.4783 106.281 15.319 106.426 15.1985L111.641 10.8488C112.322 10.2835 111.976 9.14125 111.088 9.08356L104.28 8.64513C104.095 8.63432 103.916 8.56965 103.767 8.459C103.617 8.34836 103.503 8.19654 103.438 8.0221L100.9 1.63027C100.833 1.44556 100.71 1.28599 100.549 1.17324C100.388 1.06048 100.197 1 100 1C99.8034 1 99.6117 1.06048 99.4507 1.17324C99.2897 1.28599 99.1673 1.44556 99.1001 1.63027L96.5618 8.0221C96.4971 8.19654 96.383 8.34836 96.2334 8.459C96.0839 8.56965 95.9053 8.63432 95.7196 8.64513L88.9124 9.08356C88.024 9.14125 87.6778 10.2835 88.3586 10.8488L93.5736 15.1985C93.7193 15.319 93.8281 15.4783 93.8873 15.6579C93.9465 15.8375 93.9537 16.0302 93.9081 16.2138L92.3506 22.3518C92.0852 23.3902 93.1928 24.2324 94.0812 23.6671L99.4923 20.2404C99.6441 20.1439 99.8202 20.0927 100 20.0927C100.18 20.0927 100.356 20.1439 100.508 20.2404Z" fill="#F8D57E" stroke="#F8D57E" stroke-width="2" stroke-linecap="round" stroke-linejoin="round"/>
<path d="M129.508 20.2404L135.323 23.9325C136.073 24.4055 136.996 23.7017 136.776 22.8364L135.092 16.2138C135.046 16.0302 135.054 15.8375 135.113 15.6579C135.172 15.4783 135.281 15.319 135.426 15.1985L140.641 10.8488C141.322 10.2835 140.976 9.14125 140.088 9.08356L133.28 8.64513C133.095 8.63432 132.916 8.56965 132.767 8.459C132.617 8.34836 132.503 8.19654 132.438 8.0221L129.9 1.63027C129.833 1.44556 129.71 1.28599 129.549 1.17324C129.388 1.06048 129.197 1 129 1C128.803 1 128.612 1.06048 128.451 1.17324C128.29 1.28599 128.167 1.44556 128.1 1.63027L125.562 8.0221C125.497 8.19654 125.383 8.34836 125.233 8.459C125.084 8.56965 124.905 8.63432 124.72 8.64513L117.912 9.08356C117.024 9.14125 116.678 10.2835 117.359 10.8488L122.574 15.1985C122.719 15.319 122.828 15.4783 122.887 15.6579C122.946 15.8375 122.954 16.0302 122.908 16.2138L121.351 22.3518C121.085 23.3902 122.193 24.2324 123.081 23.6671L128.492 20.2404C128.644 20.1439 128.82 20.0927 129 20.0927C129.18 20.0927 129.356 20.1439 129.508 20.2404Z" fill="#F8D57E" stroke="#F8D57E" stroke-width="2" stroke-linecap="round" stroke-linejoin="round"/>
</svg>
